<svg xmlns="http://www.w3.org/2000/svg" viewBox="0 0 400 280" style="color:#252720"><path d="M80 65 Q138 43 192 67 Q252 44 310 56 L320 225 Q250 211 197 238 Q145 217 77 229 Z" fill="none" stroke="currentColor" stroke-width="3" stroke-linecap="round" stroke-linejoin="round"/><path d="M192 67 Q189 160 197 238 M83 236 Q155 223 198 245 Q250 220 323 232" fill="none" stroke="currentColor" stroke-width="1.5" stroke-linecap="round" stroke-linejoin="round"/><path d="M270 18 Q255 70 217 135 L208 143 L212 128 Q236 62 270 18 Z" fill="currentColor" stroke="currentColor" stroke-width="1" stroke-linecap="round" stroke-linejoin="round"/><path d="M270 18 L230 96 M216 128 L203 157" fill="none" stroke="currentColor" stroke-width="1.2" stroke-linecap="round" stroke-linejoin="round"/><path d="M94 99 Q130 90 174 100" fill="none" stroke="currentColor" stroke-width="0.8" stroke-linecap="round" stroke-linejoin="round"/><path d="M94 121 Q130 112 174 122" fill="none" stroke="currentColor" stroke-width="0.8" stroke-linecap="round" stroke-linejoin="round"/><path d="M94 145 Q130 136 174 146" fill="none" stroke="currentColor" stroke-width="0.8" stroke-linecap="round" stroke-linejoin="round"/><path d="M94 165 Q130 156 174 166" fill="none" stroke="currentColor" stroke-width="0.8" stroke-linecap="round" stroke-linejoin="round"/><path d="M94 185 Q130 176 174 186" fill="none" stroke="currentColor" stroke-width="0.8" stroke-linecap="round" stroke-linejoin="round"/><path d="M94 205 Q130 196 174 206" fill="none" stroke="currentColor" stroke-width="0.8" stroke-linecap="round" stroke-linejoin="round"/><path d="M219 166 Q260 154 299 161" fill="none" stroke="currentColor" stroke-width="0.8" stroke-linecap="round" stroke-linejoin="round"/><path d="M219 188 Q260 176 299 183" fill="none" stroke="currentColor" stroke-width="0.8" stroke-linecap="round" stroke-linejoin="round"/><path d="M219 208 Q260 196 299 203" fill="none" stroke="currentColor" stroke-width="0.8" stroke-linecap="round" stroke-linejoin="round"/></svg>